<?xml version="1.0" encoding="utf-8"?>
<svg version="1.1" xmlns="http://www.w3.org/2000/svg" xmlns:xlink="http://www.w3.org/1999/xlink" x="0px" y="0px" viewBox="0 0 256 256" enable-background="new 0 0 256 256" xml:space="preserve" height="1em" width="1em">
  <g>
    <g>
      <path fill="#000000" d="M229.2,104c-3.5,0-6.7,1.7-9.4,4.6c-12.5-23.8-37.6-41.8-68.2-48.1L146,48.2c0,0,0.6-0.2,2.3-11.6c-8.4,3.8-11,7-11,7s0.6-5.6,5.9-15.9c-23.8,8.7-27.9,24.7-27.9,24.7s-0.3,0.1,1-11.4C105.7,48,101,56.3,99,61.6c-28.2,7.1-51.3,24.2-63.2,46.5c-2.6-2.6-5.6-4.1-8.9-4.1c-9.3,0-16.8,12-16.8,26.9c0,14.9,7.5,26.9,16.8,26.9c0.5,0,1,0,1.5-0.1c8.2,40.1,49.6,70.5,99.4,70.5c49.9,0,91.3-30.5,99.4-70.6c0.7,0.1,1.4,0.2,2.1,0.2c9.3,0,16.8-12,16.8-26.9C246,116.1,238.5,104,229.2,104z M27.4,132.9c-1.1,7-0.8,13.4,0.5,18.4c-6.3-0.1-11.3-7.5-11.3-16.6c0-9.2,5.2-16.6,11.5-16.6c1.2,0,2.4,0.3,3.5,0.8C29.7,122.7,28.2,127.6,27.4,132.9z M129,217.1c-43.8,0-79.2-20.4-79.2-45.6c0-4.8,1.3-9.3,3.6-13.7c-3.5-5.8-5.5-12.4-5.5-19.5c0-22.1,19.5-40.1,43.5-40.1c13.8,0,26.2,6,34.2,15.3c8-9.3,20.3-15.3,34.2-15.3c24,0,43.5,17.9,43.5,40.1c0,4.8-0.9,9.4-2.6,13.6c4.9,5.9,7.6,12.5,7.6,19.5C208.2,196.7,172.7,217.1,129,217.1z M228.2,151.3c1.3-4.9,1.5-11.4,0.5-18.4c-0.8-5.3-2.3-10.2-4.2-14.1c1.1-0.5,2.3-0.8,3.5-0.8c6.4,0,11.5,7.4,11.5,16.6C239.5,143.7,234.4,151.1,228.2,151.3z" />
      <path fill="#000000" d="M127,143.2c0-16.3-13.2-29.6-29.6-29.6s-29.6,13.2-29.6,29.6c0,16.3,13.2,29.5,29.6,29.5C113.8,172.7,127,159.5,127,143.2z M83.1,137.1c-3.8,0-6.8-3-6.8-6.8c0-3.8,3-6.8,6.8-6.8c3.8,0,6.8,3,6.8,6.8C89.9,134.1,86.9,137.1,83.1,137.1z M169.1,194c0-1.6-1.3-2.9-2.9-2.9c-1.2,0-2.3,0.7-2.7,1.8c-10.1,4.7-21.6,7.6-33.8,7.9v-16.4c4-0.9,7-4.5,7-8.8c0-5-4.1-9.1-9.1-9.1s-9.1,4.1-9.1,9.1c0,4.4,3.1,8,7.2,8.9v16.4c-11.3-0.2-21.9-2.5-31.5-6.5c-0.5-0.8-1.4-1.4-2.5-1.4c-1.6,0-2.9,1.3-2.9,2.9c0,1.3,0.8,2.4,2,2.7l-0.3,0.5c11.1,4.8,23.5,7.4,36.8,7.4c15,0,29.1-3.5,41.2-9.5l-0.5-0.7C168.6,195.8,169.1,195,169.1,194z M159.2,113.6c-16.3,0-29.6,13.2-29.6,29.6c0,16.3,13.2,29.5,29.6,29.5c16.3,0,29.6-13.2,29.6-29.5C188.7,126.8,175.5,113.6,159.2,113.6z M146.8,137.1c-3.8,0-6.8-3-6.8-6.8c0-3.8,3-6.8,6.8-6.8s6.8,3,6.8,6.8C153.6,134.1,150.6,137.1,146.8,137.1z" />
    </g>
  </g>
</svg>