<?xml version="1.0" encoding="utf-8"?>
<svg version="1.1" xmlns="http://www.w3.org/2000/svg" xmlns:xlink="http://www.w3.org/1999/xlink" x="0px" y="0px" viewBox="0 0 256 256" enable-background="new 0 0 256 256" xml:space="preserve" height="1em" width="1em">
  <g>
    <g>
      <g>
        <path fill="#000000" d="M122.8,12c-1.5,1.7-1.8,3.8-2.1,14.7c-0.2,7-0.1,13.8,0.2,15c1.4,5.7,7.7,7.8,11.7,4.2c2.9-2.7,3.2-4.8,2.8-19.2C135,12,134.2,10.1,128,10.1C125.7,10.1,124,10.7,122.8,12z" />
        <path fill="#000000" d="M57.3,22.3c-3.7,3.7-3.4,5.8,2.5,16.7c2.9,5.6,6.2,11.1,7.3,12.3c4,4.4,12,1.3,12-4.6c0-3.7-11.1-24-13.9-25.2C61.8,20,59.4,20.3,57.3,22.3z" />
        <path fill="#000000" d="M190.1,21.7c-2.5,2-13,22.2-13,25.1c0,5.8,8,8.9,12,4.5c1-1.1,4.4-6.8,7.4-12.6c5.2-9.9,5.4-10.7,4.2-13.4C198.8,20.6,193.8,18.9,190.1,21.7z" />
        <path fill="#000000" d="M12.2,60.4c-2.3,2.5-2.7,7-0.9,9.3c2.8,3.8,10.4,9.2,12.5,9.2c3.2,0,7-4,7-7.3c-0.1-3-0.8-4.1-6.8-9.5C18.9,57.5,15.3,57,12.2,60.4z" />
        <path fill="#000000" d="M232,62.1c-6,5.5-6.7,6.5-6.8,9.5c0,3.3,3.8,7.3,7,7.3c2.2,0,9.7-5.5,12.6-9.2c1.9-2.5,1.4-7.2-1-9.4C240.4,57,237.1,57.6,232,62.1z" />
        <path fill="#000000" d="M46.7,75.4c-1.5,1.2-33.9,45.5-35.7,48.9c-2.8,5.4-4.2,3.8,56.4,64.4c53.9,53.9,57.5,57.3,60.6,57.3c3.1,0,6.7-3.4,60.7-57.4c51.2-51.2,57.3-57.6,57.3-60.2c0-3.1-1-4.7-23.5-35.8c-6.4-8.9-12.3-16.6-13.1-17.3c-1.1-0.8-18.9-1.1-81.3-1.1C65.6,74.2,47.8,74.5,46.7,75.4z M105.5,94.7c-3.1,3.6-9,9.9-13,14.2l-7.4,7.7l-9.6-13.6c-5.4-7.5-9.7-13.8-9.7-14.2c0-0.3,10.2-0.6,22.7-0.6h22.7L105.5,94.7z M190.3,89c-0.1,0.5-4.4,6.8-9.8,14.2l-9.7,13.4l-9.4-10.1c-5.1-5.6-10.9-11.9-12.9-14.2l-3.6-4h22.7C180,88.4,190.3,88.7,190.3,89z M141.6,106.5l13,14H128h-26.5l13-14.1c7.2-7.8,13.3-14.1,13.6-14C128.4,92.5,134.5,98.8,141.6,106.5z M60.6,107.1c5,6.9,8.9,12.7,8.7,12.9c-0.2,0.3-8.8,0.3-19,0.2L31.8,120l9.2-12.9c5.1-7.1,9.5-12.8,9.9-12.7C51.1,94.4,55.6,100.2,60.6,107.1z M216.2,108.7l8.2,11.3l-18.6,0.3c-10.2,0.1-18.8,0.1-19-0.2c-0.2-0.2,3.8-6.1,8.9-13.2C206.4,92,204,91.8,216.2,108.7z M80.2,136.7c0.7,1.6,26.1,66.7,27.2,69.3c0.5,1.2,0.7,2.2,0.6,2.2s-16.5-16.3-36.5-36.3l-36.3-36.3h22.3C74.4,135.5,79.8,135.8,80.2,136.7z M160.1,136.2c0,1.5-31.5,81.4-32.1,81.4c-0.6,0-32.2-80-32.1-81.4C96,135.4,160.1,135.4,160.1,136.2z M220.5,135.8c0,0.1-16.3,16.5-36.3,36.5s-36,35.3-35.6,34c0.8-2.2,26.1-66.7,27.3-69.6c0.4-0.9,5.8-1.1,22.5-1.1C210.6,135.5,220.5,135.6,220.5,135.8z" />
      </g>
    </g>
  </g>
</svg>