<?xml version="1.0" encoding="UTF-8" standalone="no"?>
<svg viewBox="0 0 398 335.60312"
   xmlns:xlink="http://www.w3.org/1999/xlink"
   xmlns="http://www.w3.org/2000/svg"
   xmlns:svg="http://www.w3.org/2000/svg">
   <g transform="translate(-799.46716,-34.398899)">
      <path fill="currentColor" style="fill:#1a1a1a" d="m 831.21714,369.76812 c -10.21639,-16.24224 14.69883,-3.97305 15.77523,-18.222 5.11042,-16.16063 -8.67906,-31.90687 -12.81902,-47.43476 -0.41586,-9.37118 -20.59342,-34.03914 0.0146,-29.32564 5.89465,0.9647 4.94337,11.11549 8.02728,15.85173 4.63715,13.28522 9.23288,26.58473 13.74806,39.91193 7.25805,-18.48354 13.4086,-37.38445 19.89384,-56.1502 5.23549,0.89458 17.96183,-3.19753 11.25527,5.60059 -11.4962,28.13915 -20.35003,57.73839 -35.64105,84.0899 -4.60729,6.33448 -13.26608,6.14811 -20.25425,5.67845 z m -31.75,-73.86894 c 0,-15.5 0,-31 0,-46.5 6.42647,0.003 14.96067,-2.10165 12,7.28852 0,28.5705 0,57.14099 0,85.71148 -6.42647,-0.003 -14.96067,2.10165 -12,-7.28852 0,-13.0705 0,-26.14099 0,-39.21148 z m 101,12.5499 c 0,-11.34997 0,-22.69993 0,-34.0499 5.56951,0.1956 13.72645,-2.21402 11.04314,6.29119 -0.66077,10.2207 12.92388,-12.57974 21.14521,-7.94984 25.64867,-2.37613 27.51987,25.53866 25.65941,43.94979 0.10721,8.56962 0.21442,17.13924 0.32163,25.70886 -6.4318,-0.0127 -14.98218,2.11955 -12.13468,-7.28797 -0.85999,-15.44791 1.43627,-31.47675 -2.4907,-46.44587 -17.55771,-19.03635 -37.73725,8.63243 -31.424,27.37993 -3.17253,7.11602 4.75624,25.10017 -4.77923,26.07084 -9.10131,3.32034 -7.55568,-4.57606 -7.34078,-11.07051 0,-7.53218 0,-15.06435 0,-22.59652 z m 70,33.05293 c 8.17681,-11.20094 16.37986,-22.51468 24.15725,-34.06079 -7.11131,-10.9683 -16.56101,-21.89807 -22.50992,-32.42767 17.0347,-6.29271 21.72784,13.5963 31.05253,23.28292 6.9947,-6.99766 10.4899,-19.75363 18.8826,-23.83209 3.4809,0.99515 16.9156,-2.76994 10.0252,3.1848 -6.7993,13.62378 -31.2308,27.96554 -13.3697,41.88919 4.7532,9.12978 26.0339,26.65883 4.3219,22.86081 -9.1933,-3.92042 -12.8821,-19.23521 -21.0303,-24.7634 -8.07564,6.75034 -10.8468,22.34314 -21.06416,24.7634 -3.48414,-0.13341 -7.1568,0.44933 -10.4654,-0.89717 z m 118.00006,-45.60283 c 0,-15.5 0,-31 0,-46.5 4.9298,1.13893 15.6232,-3.48583 13,5.20609 0,29.26464 0,58.52927 0,87.79391 -4.9298,-1.13893 -15.6232,3.48583 -13,-5.20609 0,-13.76464 0,-27.52927 0,-41.29391 z m 62,5.5 c 0,-13.66667 0,-27.33333 0,-41 -11.5,6.7e-4 -23,10e-4 -34.5,0.002 0.1816,-6.30276 -0.8309,-13.87647 7.9736,-11.00273 24.5088,0 49.0176,0 73.5264,0 0.2161,6.31226 1.6847,13.87703 -7.2885,11 -8.9038,0 -17.8077,0 -26.7115,0 0,27.33333 0,54.66667 0,82 -4.9298,-1.13893 -15.6232,3.48583 -13,-5.20609 0,-11.93057 0,-23.86504 0,-35.79318 z m -154.22451,-92.75 c -10.06609,-17.01973 -29.34471,-25.50065 -45.83659,-35.1066 -14.14211,-11.31529 -34.26415,-10.61867 -48.06194,-21.93624 -9.58051,-7.08563 19.1985,-3.98412 3.74424,-13.8651 -16.36297,-9.59452 17.3813,-8.17893 -1.15336,-16.34206 -12.68676,-6.89471 12.01776,-7.22256 7.46308,-16.64885 -2.09221,-24.62331 8.63307,-51.432615 31.49681,-62.980548 10.53094,-9.103876 19.59341,-8.257585 16.00876,7.334101 2.15556,15.463003 -4.55333,36.862496 5.56527,48.461987 19.0691,-12.658659 44.97104,-13.708355 64.24144,-0.88949 12.8058,-2.298046 4.8626,-29.88583 7.2732,-42.126268 -1.0597,-11.981987 -0.8275,-27.414847 13.6198,-14.226351 20.0427,10.431293 36.3865,31.643271 33.678,55.216506 1.2422,5.929733 -2.886,15.079953 4.8569,17.111393 18.4634,4.22459 -15.7272,16.24954 6.0805,17.86056 -0.3637,6.34596 -18.8241,15.72641 -0.5606,16.86074 -0.3715,14.2825 -30.5961,13.40455 -42.3777,22.57411 -16.5705,10.08449 -35.4418,18.4064 -48.1304,33.4321 -1.4379,1.97654 -4.85289,10.37685 -7.90741,5.27001 z" id="path272" />
   </g>
</svg>
