<?xml version="1.0" encoding="UTF-8" standalone="no"?>
<svg version="1.1" viewBox="0 0 337 314"
   xmlns:xlink="http://www.w3.org/1999/xlink"
   xmlns="http://www.w3.org/2000/svg"
   xmlns:svg="http://www.w3.org/2000/svg">
   <g transform="translate(-828.77649,-43.295291)">
      <path fill="currentColor" d="m 994.78372,355.16854 c -17.42499,-30.61481 -50.79737,-45.87015 -79.34573,-63.14917 -24.48078,-20.35376 -59.31317,-19.1007 -83.19791,-39.45855 -16.58441,-12.74551 33.23367,-7.16657 6.4815,-24.94031 -28.32522,-17.25847 30.088,-14.71213 -1.99656,-29.39584 -21.96148,-12.40208 20.80343,-12.99181 12.91903,-29.94768 -3.62173,-44.29201 14.94432,-92.516153 54.52274,-113.288381 18.22963,-16.375892 33.91729,-14.853598 27.71205,13.19246 3.7314,27.814607 -7.88206,66.307671 9.63379,87.172641 33.00969,-22.77019 77.84747,-24.65838 111.20547,-1.60001 22.1677,-4.1337 8.4175,-53.758136 12.5905,-75.776041 -1.8346,-21.553007 -1.4325,-49.313384 23.5765,-25.590127 34.6951,18.763634 62.9872,56.919408 58.2985,99.322558 2.1504,10.66629 -4.9959,27.12556 8.4076,30.7797 31.9613,7.59911 -27.2247,29.2294 10.5257,32.12726 -0.6295,11.41503 -32.5857,28.28842 -0.9705,30.32883 -0.643,25.69113 -52.9635,24.11189 -73.358,40.60594 -28.6847,18.13982 -61.3518,33.10913 -83.3165,60.13711 -2.4891,3.55538 -8.4007,18.66571 -13.68818,9.47961 z" id="path272" />
   </g>
</svg>
