<?xml version="1.0" encoding="UTF-8" standalone="no"?>
<svg version="1.1" viewBox="0 0 637 175"
   xmlns:xlink="http://www.w3.org/1999/xlink"
   xmlns="http://www.w3.org/2000/svg"
   xmlns:svg="http://www.w3.org/2000/svg">
   <g transform="translate(-817.10443,-105.30458)">
      <path d="m 913.00381,278.68466 c -10.06609,-17.01973 -29.34471,-25.50065 -45.83659,-35.1066 -14.14211,-11.31529 -34.26415,-10.61867 -48.06194,-21.93624 -9.58051,-7.08563 19.1985,-3.98412 3.74424,-13.8651 -16.36297,-9.59452 17.3813,-8.17893 -1.15336,-16.34206 -12.68676,-6.89471 12.01776,-7.22256 7.46308,-16.64885 -2.09221,-24.62331 8.63307,-51.43262 31.49681,-62.98055 10.53094,-9.10388 19.59341,-8.25759 16.00876,7.3341 2.15556,15.463 -4.55333,36.86249 5.56527,48.46199 19.0691,-12.65866 44.97104,-13.70836 64.24144,-0.88949 12.8058,-2.29805 4.8626,-29.88583 7.2732,-42.12627 -1.0597,-11.98199 -0.8275,-27.41485 13.6198,-14.22635 20.0427,10.43129 36.38648,31.64327 33.67798,55.2165 1.2422,5.92974 -2.88598,15.07996 4.8569,17.1114 18.4634,4.22459 -15.72718,16.24954 6.0805,17.86056 -0.3637,6.34596 -18.82408,15.72641 -0.5606,16.86074 -0.3715,14.2825 -30.59608,13.40455 -42.37768,22.57411 -16.5705,10.08449 -35.4418,18.4064 -48.1304,33.4321 -1.4379,1.97654 -4.85289,10.37685 -7.90741,5.27001 z" id="path272" />
      <path d="m 1087.6404,253.81085 c -10.2164,-16.24224 14.6989,-3.97305 15.7753,-18.222 5.1104,-16.16063 -8.6791,-31.90687 -12.8191,-47.43476 -0.4158,-9.37118 -20.5934,-34.03914 0.015,-29.32564 5.8947,0.9647 4.9434,11.11549 8.0273,15.85173 4.6372,13.28522 9.2329,26.58473 13.7481,39.91193 7.258,-18.48354 13.4086,-37.38445 19.8938,-56.1502 5.2355,0.89458 17.9619,-3.19753 11.2553,5.60059 -11.4962,28.13915 -20.35,57.73839 -35.6411,84.0899 -4.6072,6.33448 -13.266,6.14811 -20.2542,5.67845 z m -31.75,-73.86894 v -46.5 c 6.4265,0.003 14.9607,-2.10165 12,7.28852 v 85.71148 c -6.4264,-0.003 -14.9606,2.10165 -12,-7.28852 z m 101,12.5499 v -34.0499 c 5.5695,0.1956 13.7265,-2.21402 11.0432,6.29119 -0.6608,10.2207 12.9239,-12.57974 21.1452,-7.94984 25.6487,-2.37613 27.5199,25.53866 25.6594,43.94979 l 0.3217,25.70886 c -6.4318,-0.0127 -14.9823,2.11955 -12.1347,-7.28797 -0.86,-15.44791 1.4362,-31.47675 -2.4908,-46.44587 -17.5577,-19.03635 -37.7372,8.63243 -31.424,27.37993 -3.1725,7.11602 4.7563,25.10017 -4.7792,26.07084 -9.1013,3.32034 -7.5557,-4.57606 -7.3408,-11.07051 z m 70.0001,33.05293 c 8.1768,-11.20094 16.3798,-22.51468 24.1572,-34.06079 -7.1113,-10.9683 -16.561,-21.89807 -22.5099,-32.42767 17.0347,-6.29271 21.7278,13.5963 31.0525,23.28292 6.9947,-6.99766 10.4899,-19.75363 18.8826,-23.83209 3.4809,0.99515 16.9156,-2.76994 10.0252,3.1848 -6.7993,13.62378 -31.2308,27.96554 -13.3697,41.88919 4.7532,9.12978 26.0339,26.65883 4.3219,22.86081 -9.1933,-3.92042 -12.8821,-19.23521 -21.0303,-24.7634 -8.0756,6.75034 -10.8468,22.34314 -21.0641,24.7634 -3.4842,-0.13341 -7.1568,0.44933 -10.4654,-0.89717 z m 118,-45.60283 v -46.5 c 4.9298,1.13893 15.6232,-3.48583 13,5.20609 v 87.79391 c -4.9298,-1.13893 -15.6232,3.48583 -13,-5.20609 z m 62,5.5 v -41 c -11.5,6.7e-4 -23,0.001 -34.5,0.002 0.1816,-6.30276 -0.8309,-13.87647 7.9736,-11.00273 h 73.5264 c 0.2161,6.31226 1.6847,13.87703 -7.2885,11 h -26.7115 v 82 c -4.9298,-1.13893 -15.6232,3.48583 -13,-5.20609 z" id="path1361" />

   </g>
</svg>
